<?xml version="1.0" encoding="UTF-8"?>
<!DOCTYPE svg PUBLIC "-//W3C//DTD SVG 1.1//EN" "http://www.w3.org/Graphics/SVG/1.1/DTD/svg11.dtd">
<!-- Creator: CorelDRAW 2020 (64 Bit) -->
<svg xmlns="http://www.w3.org/2000/svg" xml:space="preserve" width="56.2822mm" height="6.7732mm" version="1.1" style="shape-rendering:geometricPrecision; text-rendering:geometricPrecision; image-rendering:optimizeQuality; fill-rule:evenodd; clip-rule:evenodd"
viewBox="0 0 5620.55 676.4"
 xmlns:xlink="http://www.w3.org/1999/xlink"
 xmlns:xodm="http://www.corel.com/coreldraw/odm/2003">
 <defs>
  <style type="text/css">
   <![CDATA[
    .fil1 {fill:black;fill-rule:nonzero}
    .fil0 {fill:#BD801F;fill-rule:nonzero}
   ]]>
  </style>
 </defs>
 <g id="Camada_x0020_1">
  <metadata id="CorelCorpID_0Corel-Layer"/>
  <path class="fil0" d="M736.61 661.53c-7.28,1.04 -12.48,2.08 -17.69,2.08 -55.13,0 -109.24,0 -164.39,0 -16.65,0 -16.65,0 -22.89,-16.65 -9.37,-24.97 -18.72,-48.89 -27.05,-73.87 -4.15,-11.44 -10.41,-14.56 -20.8,-14.56 -79.07,0 -158.14,0 -238.26,0 -12.48,0 -17.69,5.2 -21.85,15.61 -8.32,24.97 -18.72,49.93 -28.08,75.95 -3.13,9.37 -7.29,13.52 -17.7,13.52 -55.13,0 -111.32,0 -166.46,0 -3.13,0 -6.24,-1.04 -11.44,-2.08 2.08,-6.24 4.16,-12.48 6.24,-17.69 87.4,-203.92 174.79,-408.88 261.14,-612.8 5.2,-12.49 11.44,-16.65 24.98,-16.65 53.06,1.04 106.13,1.04 159.18,0 14.57,0 20.81,5.2 26.01,18.72 56.18,136.29 112.36,273.63 168.54,409.92 28.09,67.64 55.14,134.22 83.24,201.84 3.13,4.16 5.2,9.37 7.28,16.65zm-368.31 -454.67c-10.41,12.49 -81.15,196.64 -81.15,212.25 13.52,5.2 142.54,5.2 159.18,0 0,-12.48 -66.59,-195.6 -78.03,-212.25z"/>
  <path class="fil0" d="M1372.32 115.3c-36.41,43.7 -70.74,84.28 -106.13,126.94 -5.2,-5.2 -9.36,-9.37 -13.52,-13.53 -22.89,-24.97 -48.9,-44.74 -80.11,-58.26 -82.2,-35.37 -169.59,-1.04 -206.01,81.15 -23.93,54.11 -23.93,109.25 0,163.35 36.42,84.28 123.81,118.61 208.09,83.24 29.13,-12.48 56.18,-29.13 79.07,-50.98 3.13,-3.13 6.24,-5.2 11.44,-10.41 35.37,38.5 70.75,75.96 106.13,113.41 -17.69,22.89 -37.46,38.5 -59.31,53.06 -52.02,36.42 -109.24,61.39 -172.7,68.68 -193.53,22.89 -350.62,-101.96 -377.67,-275.71 -11.44,-71.79 -5.2,-142.54 27.05,-209.12 41.61,-85.31 109.24,-141.5 198.72,-168.55 131.09,-40.57 250.74,-13.52 357.9,70.75 10.41,8.32 17.69,17.69 27.05,26z"/>
  <path class="fil1" d="M2024.67 165.24c-3.13,5.2 -6.24,11.44 -9.37,16.65 -61.39,118.61 -123.81,236.18 -185.2,354.79 -3.13,6.24 -6.24,12.48 -10.41,18.72 -16.65,23.93 -48.89,23.93 -64.5,0 -10.41,-15.61 -18.73,-32.26 -27.05,-47.85 -57.22,-107.16 -113.41,-215.37 -170.63,-322.53 -3.13,-5.2 -6.24,-10.41 -11.44,-14.57 0,6.24 -1.04,12.48 -1.04,18.72 0,144.62 0,289.24 0,434.9 0,8.33 -1.05,17.69 -3.13,26.01 -4.16,15.61 -15.61,22.89 -32.26,22.89 -16.65,0 -29.13,-9.37 -33.29,-24.98 -2.08,-7.28 -2.08,-14.56 -2.08,-20.8 0,-191.44 0,-382.88 0,-574.32 0,-5.2 0,-10.41 1.04,-15.61 2.08,-14.56 10.41,-26 24.98,-29.13 14.56,-4.16 29.13,-2.08 38.49,11.44 6.24,8.33 12.49,17.69 16.65,27.05 72.83,138.37 144.62,277.79 217.45,416.17 4.15,7.28 7.28,14.56 13.52,24.97 5.2,-8.32 8.33,-13.52 11.44,-18.72 68.67,-134.22 138.38,-267.4 207.05,-401.6 7.28,-14.57 14.56,-29.13 22.89,-42.66 9.36,-15.61 22.89,-19.76 39.54,-16.65 14.56,2.09 24.97,12.49 27.04,27.05 1.05,7.28 1.05,14.57 1.05,21.85 0,190.4 0,379.75 0,570.15 0,5.2 0,9.36 0,14.56 -1.05,19.77 -12.49,31.22 -31.22,33.29 -19.76,1.04 -32.26,-8.32 -36.41,-29.13 -1.05,-7.28 -1.05,-14.56 -1.05,-21.85 0,-145.65 0,-291.31 0,-435.94 0,-6.24 0,-13.52 0,-19.76 0.01,-3.13 -1.03,-3.13 -2.07,-3.13z"/>
  <path class="fil1" d="M3352.25 328.59c18.72,9.37 35.37,15.61 49.94,24.97 37.45,23.94 57.22,59.31 63.46,103.01 6.24,43.69 2.08,86.35 -20.81,125.89 -22.89,38.49 -59.3,61.39 -101.96,72.83 -23.93,6.24 -47.85,10.4 -71.78,11.44 -84.28,1.04 -169.59,1.04 -253.86,1.04 -28.09,0 -41.62,-13.53 -41.62,-41.61 0,-191.44 0,-382.88 0,-573.28 0,-29.13 12.49,-42.65 42.66,-42.65 80.11,0 159.18,0 239.29,0 35.38,0 69.7,6.24 101.96,21.85 54.11,24.97 86.36,66.58 91.56,125.89 4.16,47.85 -4.15,91.56 -37.45,127.97 -13.53,14.57 -29.13,26.01 -46.83,35.38 -3.12,2.08 -8.32,4.15 -14.56,7.28zm-300.68 276.75c8.32,0 14.56,0 20.8,0 35.38,0 71.79,0 107.16,0 26.01,0 52.02,0 79.07,0 26.01,-1.04 50.98,-4.16 74.92,-14.57 31.21,-13.52 52.02,-35.37 57.22,-69.7 3.13,-15.61 4.16,-32.26 3.13,-47.85 -3.13,-49.94 -30.18,-83.24 -78.03,-97.81 -13.53,-4.16 -28.09,-7.28 -41.62,-8.32 -71.78,-1.04 -142.54,-2.09 -214.33,-2.09 -3.12,0 -5.2,2.09 -8.32,3.13 0,78.03 0,156.07 0,237.22zm0 -304.84c5.2,1.04 9.36,1.04 12.48,1.04 59.3,0 117.57,0 176.87,0 15.61,0 32.26,-2.08 47.86,-6.24 42.65,-9.36 82.19,-33.29 89.47,-93.63 7.29,-56.18 -16.64,-101.96 -71.78,-119.66 -24.98,-8.32 -50.98,-10.4 -76.99,-10.4 -53.06,0 -106.13,0 -159.18,0 -6.24,0 -11.44,1.04 -17.69,1.04 -1.04,76.98 -1.04,151.9 -1.04,227.85z"/>
  <path class="fil1" d="M2237.95 330.67c0,-48.89 7.29,-104.04 29.14,-157.1 38.49,-93.64 108.2,-148.79 207.04,-166.47 49.94,-9.36 100.92,-7.28 150.86,6.24 88.44,23.94 147.74,79.07 182.07,162.31 24.98,61.39 31.22,125.89 28.09,191.44 -2.08,49.94 -12.48,98.84 -33.29,145.66 -38.5,85.31 -104.04,137.33 -195.6,156.06 -61.38,12.48 -123.8,10.41 -183.11,-12.48 -72.83,-27.05 -122.77,-76.99 -153.98,-147.74 -22.89,-54.11 -31.22,-111.33 -31.22,-177.92zm520.22 4.16c1.04,-45.78 -5.2,-91.56 -22.89,-136.29 -22.9,-60.35 -63.47,-103 -125.9,-121.73 -32.25,-10.4 -65.54,-12.48 -98.84,-9.36 -80.11,8.32 -137.34,48.89 -169.59,123.81 -15.61,35.37 -22.89,73.87 -24.98,112.36 -3.12,56.18 0,112.37 18.72,165.43 21.85,63.46 62.42,109.24 127.98,130.05 42.66,13.52 85.31,14.56 129.01,5.2 71.79,-15.61 118.61,-60.35 144.62,-127.98 17.69,-43.7 22.89,-91.56 21.85,-141.5z"/>
  <path class="fil1" d="M4749.54 71.61c-8.33,0 -14.57,0 -21.85,0 -56.18,0 -112.37,0 -167.51,0 -5.2,0 -10.41,0 -15.61,0 -21.85,-2.09 -31.21,-13.53 -31.21,-33.29 1.04,-18.73 11.44,-29.13 32.25,-30.18 5.2,0 9.37,0 14.57,0 151.9,0 303.81,0 455.71,0 5.2,0 9.36,0 14.56,0 32.26,1.05 36.42,23.94 30.18,45.79 -2.09,8.32 -9.37,13.52 -17.69,15.6 -8.33,2.09 -16.65,2.09 -24.98,3.13 -56.18,0 -113.41,0 -169.59,0 -6.24,0 -12.48,0 -21.85,0 0,9.37 0,16.65 0,24.98 0,172.7 0,345.41 0,518.12 0,7.28 0,15.61 -1.04,22.89 -2.08,19.77 -14.57,31.22 -34.33,32.26 -20.81,1.04 -35.37,-9.37 -39.54,-28.09 -2.08,-7.28 -1.04,-15.61 -2.08,-22.89 0,-173.75 0,-347.5 0,-521.25 0,-9.37 0,-16.66 0,-27.05z"/>
  <path class="fil1" d="M5349.86 291.13c6.24,-7.28 10.41,-13.52 15.61,-18.72 61.39,-79.07 123.81,-159.18 185.2,-238.25 5.2,-6.24 9.36,-12.48 14.57,-17.69 11.44,-11.44 28.08,-12.48 40.57,-4.16 13.52,9.37 18.72,28.09 11.44,42.66 -4.16,7.28 -9.37,13.52 -14.57,20.8 -68.67,87.4 -137.33,173.75 -206.01,261.14 -8.32,10.41 -12.48,20.81 -12.48,34.33 1.04,83.24 0,165.43 0,248.66 0,6.25 0,11.45 0,17.7 -2.08,22.89 -15.61,36.41 -38.5,36.41 -21.84,0 -35.37,-13.52 -36.41,-35.37 -1.04,-18.73 0,-37.46 0,-55.14 0,-70.74 0,-141.5 0,-212.25 0,-12.48 -3.13,-22.89 -11.44,-32.25 -69.7,-87.4 -138.38,-174.79 -208.09,-261.14 -4.16,-4.16 -7.28,-9.37 -10.41,-14.57 -10.41,-16.65 -8.32,-34.33 6.24,-45.78 14.57,-11.44 33.29,-11.44 45.78,4.16 22.9,27.04 44.74,56.18 66.59,84.28 45.78,58.26 91.56,116.52 137.34,174.79 5.19,0 9.36,4.15 14.56,10.4z"/>
  <path class="fil1" d="M3921.36 605.34c8.32,0 15.61,0 21.85,0 89.48,0 178.95,0 268.42,0 7.29,0 14.57,0 21.85,1.04 16.65,2.08 26.01,13.52 26.01,30.17 0,17.69 -9.37,29.13 -27.05,32.26 -5.2,1.04 -10.41,1.04 -15.61,1.04 -108.2,0 -215.37,0 -323.57,0 -5.2,0 -9.37,0 -14.57,0 -17.69,-2.08 -29.13,-13.52 -32.25,-30.17 -1.05,-5.2 -1.05,-10.41 -1.05,-15.61 0,-188.31 0,-376.63 0,-564.95 0,-8.32 1.05,-17.69 3.13,-26 4.16,-15.61 17.69,-23.94 35.37,-23.94 17.69,0 30.18,8.33 34.34,24.98 2.08,9.36 3.12,18.72 3.12,28.09 0,173.74 0,346.46 0,520.21 0,6.24 0,13.52 0,22.89z"/>
  <path class="fil1" d="M4425.96 339c0,93.63 0,187.27 0,280.91 0,5.21 0,10.41 0,15.61 -1.04,22.89 -14.56,35.38 -35.37,36.42 -22.89,1.04 -36.42,-12.48 -38.5,-35.37 -1.04,-6.24 -1.04,-13.53 -1.04,-19.77 0,-186.24 0,-373.51 0,-559.75 0,-7.28 0,-15.61 1.04,-22.89 3.13,-18.72 16.65,-29.13 36.42,-29.13 19.76,0 33.29,11.44 36.41,30.17 1.05,6.24 1.05,13.53 1.05,19.77 -0.01,94.67 -0.01,189.35 -0.01,284.03z"/>
  <path class="fil1" d="M3682.06 341.07c0,92.59 0,186.24 0,278.83 0,6.25 0,13.53 -1.04,19.77 -2.08,20.81 -15.61,32.26 -35.37,33.29 -20.81,1.04 -35.37,-11.44 -38.5,-31.22 -1.04,-6.24 -1.04,-11.44 -1.04,-17.69 0,-189.35 0,-378.71 0,-568.06 0,-5.2 0,-9.37 0,-14.57 3.13,-32.25 29.13,-40.57 53.06,-33.29 11.44,3.13 18.73,12.49 20.81,24.98 1.04,7.28 2.08,15.61 2.08,22.89 0,94.68 0,189.35 0,285.07z"/>
 </g>
</svg>
