<?xml version="1.0" encoding="UTF-8"?>
<!DOCTYPE svg PUBLIC "-//W3C//DTD SVG 1.1//EN" "http://www.w3.org/Graphics/SVG/1.1/DTD/svg11.dtd">
<!-- Creator: CorelDRAW 2020 (64 Bit) -->
<svg xmlns="http://www.w3.org/2000/svg" xml:space="preserve" width="13.7419mm" height="6.7556mm" version="1.1" style="shape-rendering:geometricPrecision; text-rendering:geometricPrecision; image-rendering:optimizeQuality; fill-rule:evenodd; clip-rule:evenodd"
viewBox="0 0 335.07 164.72"
 xmlns:xlink="http://www.w3.org/1999/xlink"
 xmlns:xodm="http://www.corel.com/coreldraw/odm/2003">
 <defs>
  <style type="text/css">
   <![CDATA[
    .fil0 {fill:#FEFEFE;fill-rule:nonzero}
   ]]>
  </style>
 </defs>
 <g id="Camada_x0020_1">
  <metadata id="CorelCorpID_0Corel-Layer"/>
  <path class="fil0" d="M179.85 161.52c-1.78,0.25 -3.05,0.51 -4.32,0.51 -13.46,0 -26.67,0 -40.14,0 -4.06,0 -4.06,0 -5.59,-4.06 -2.29,-6.1 -4.57,-11.94 -6.61,-18.04 -1.01,-2.79 -2.54,-3.56 -5.08,-3.56 -19.31,0 -38.61,0 -58.17,0 -3.05,0 -4.32,1.27 -5.33,3.81 -2.03,6.1 -4.57,12.19 -6.86,18.54 -0.76,2.29 -1.78,3.3 -4.32,3.3 -13.46,0 -27.18,0 -40.64,0 -0.76,0 -1.52,-0.26 -2.79,-0.51 0.51,-1.52 1.02,-3.05 1.52,-4.32 21.34,-49.79 42.68,-99.83 63.76,-149.62 1.27,-3.05 2.79,-4.06 6.1,-4.06 12.95,0.25 25.91,0.25 38.87,0 3.56,0 5.08,1.27 6.35,4.57 13.97,33.02 27.69,66.56 41.4,99.83 6.86,16.51 13.46,32.77 20.32,49.28 0.51,1.27 1.02,2.54 1.52,4.32zm-89.93 -111.01c-2.54,3.05 -19.81,48.01 -19.81,51.82 3.3,1.27 34.8,1.27 38.87,0 0,-3.05 -16.26,-47.76 -19.05,-51.82z"/>
  <path class="fil0" d="M335.07 28.15c-8.89,10.67 -17.27,20.58 -25.91,30.99 -1.27,-1.27 -2.28,-2.29 -3.3,-3.3 -5.59,-6.1 -11.94,-10.92 -19.56,-14.22 -20.07,-8.64 -41.41,-0.25 -50.3,19.81 -5.84,13.21 -5.84,26.67 0,39.88 8.89,20.58 30.23,28.96 50.81,20.32 7.11,-3.05 13.72,-7.11 19.31,-12.45 0.76,-0.76 1.52,-1.27 2.79,-2.54 8.64,9.4 17.28,18.55 25.91,27.69 -4.32,5.59 -9.15,9.4 -14.48,12.96 -12.7,8.89 -26.67,14.99 -42.17,16.77 -47.25,5.59 -85.61,-24.89 -92.21,-67.32 -2.79,-17.53 -1.27,-34.8 6.61,-51.06 10.16,-20.83 26.67,-34.55 48.52,-41.15 32.01,-9.91 61.22,-3.3 87.39,17.28 2.54,2.03 4.32,4.32 6.61,6.35z"/>
  <path class="fil0" d="M179.85 161.52c-1.78,0.25 -3.05,0.51 -4.32,0.51 -13.46,0 -26.67,0 -40.14,0 -4.06,0 -4.06,0 -5.59,-4.06 -2.29,-6.1 -4.57,-11.94 -6.61,-18.04 -1.01,-2.79 -2.54,-3.56 -5.08,-3.56 -19.31,0 -38.61,0 -58.17,0 -3.05,0 -4.32,1.27 -5.33,3.81 -2.03,6.1 -4.57,12.19 -6.86,18.54 -0.76,2.29 -1.78,3.3 -4.32,3.3 -13.46,0 -27.18,0 -40.64,0 -0.76,0 -1.52,-0.26 -2.79,-0.51 0.51,-1.52 1.02,-3.05 1.52,-4.32 21.34,-49.79 42.68,-99.83 63.76,-149.62 1.27,-3.05 2.79,-4.06 6.1,-4.06 12.95,0.25 25.91,0.25 38.87,0 3.56,0 5.08,1.27 6.35,4.57 13.97,33.02 27.69,66.56 41.4,99.83 6.86,16.51 13.46,32.77 20.32,49.28 0.51,1.27 1.02,2.54 1.52,4.32zm-89.93 -111.01c-2.54,3.05 -19.81,48.01 -19.81,51.82 3.3,1.27 34.8,1.27 38.87,0 0,-3.05 -16.26,-47.76 -19.05,-51.82z"/>
  <path class="fil0" d="M335.07 28.15c-8.89,10.67 -17.27,20.58 -25.91,30.99 -1.27,-1.27 -2.28,-2.29 -3.3,-3.3 -5.59,-6.1 -11.94,-10.92 -19.56,-14.22 -20.07,-8.64 -41.41,-0.25 -50.3,19.81 -5.84,13.21 -5.84,26.67 0,39.88 8.89,20.58 30.23,28.96 50.81,20.32 7.11,-3.05 13.72,-7.11 19.31,-12.45 0.76,-0.76 1.52,-1.27 2.79,-2.54 8.64,9.4 17.28,18.55 25.91,27.69 -4.32,5.59 -9.15,9.4 -14.48,12.96 -12.7,8.89 -26.67,14.99 -42.17,16.77 -47.25,5.59 -85.61,-24.89 -92.21,-67.32 -2.79,-17.53 -1.27,-34.8 6.61,-51.06 10.16,-20.83 26.67,-34.55 48.52,-41.15 32.01,-9.91 61.22,-3.3 87.39,17.28 2.54,2.03 4.32,4.32 6.61,6.35z"/>
 </g>
</svg>
